<mxfile host="65bd71144e">
    <diagram id="c9KTRhDAJt0Q00L5G3fb" name="Page-1">
        <mxGraphModel dx="1130" dy="769" grid="1" gridSize="10" guides="1" tooltips="1" connect="1" arrows="1" fold="1" page="1" pageScale="1" pageWidth="1100" pageHeight="850" background="none" math="0" shadow="0">
            <root>
                <mxCell id="0"/>
                <mxCell id="1" parent="0"/>
                <mxCell id="2" value="main.py" style="whiteSpace=wrap;html=1;aspect=fixed;" parent="1" vertex="1">
                    <mxGeometry x="320" y="440" width="80" height="80" as="geometry"/>
                </mxCell>
                <mxCell id="3" value="beta.py" style="whiteSpace=wrap;html=1;aspect=fixed;" parent="1" vertex="1">
                    <mxGeometry x="320" y="600" width="80" height="80" as="geometry"/>
                </mxCell>
                <mxCell id="4" value="" style="endArrow=none;html=1;entryX=0.5;entryY=1;entryDx=0;entryDy=0;exitX=0.5;exitY=0;exitDx=0;exitDy=0;" parent="1" source="3" target="2" edge="1">
                    <mxGeometry width="50" height="50" relative="1" as="geometry">
                        <mxPoint x="260" y="570" as="sourcePoint"/>
                        <mxPoint x="555" y="580" as="targetPoint"/>
                    </mxGeometry>
                </mxCell>
                <mxCell id="5" value="cogs" style="ellipse;whiteSpace=wrap;html=1;" parent="1" vertex="1">
                    <mxGeometry x="300" y="280" width="120" height="80" as="geometry"/>
                </mxCell>
                <mxCell id="6" value="" style="endArrow=none;html=1;entryX=0.5;entryY=1;entryDx=0;entryDy=0;exitX=0.5;exitY=0;exitDx=0;exitDy=0;shape=link;" parent="1" source="2" target="5" edge="1">
                    <mxGeometry width="50" height="50" relative="1" as="geometry">
                        <mxPoint x="505" y="530" as="sourcePoint"/>
                        <mxPoint x="555" y="480" as="targetPoint"/>
                    </mxGeometry>
                </mxCell>
                <mxCell id="8" value="" style="endArrow=none;html=1;exitX=1;exitY=0;exitDx=0;exitDy=0;entryX=0;entryY=1;entryDx=0;entryDy=0;shape=link;" parent="1" source="5" edge="1">
                    <mxGeometry width="50" height="50" relative="1" as="geometry">
                        <mxPoint x="425" y="360" as="sourcePoint"/>
                        <mxPoint x="480" y="200" as="targetPoint"/>
                    </mxGeometry>
                </mxCell>
                <mxCell id="16" value="error.py" style="whiteSpace=wrap;html=1;aspect=fixed;textDirection=ltr;" parent="1" vertex="1">
                    <mxGeometry x="320" y="120" width="80" height="80" as="geometry"/>
                </mxCell>
                <UserObject label="subscribe.py" id="17">
                    <mxCell style="whiteSpace=wrap;html=1;aspect=fixed;" parent="1" vertex="1">
                        <mxGeometry x="159" y="120" width="80" height="80" as="geometry"/>
                    </mxCell>
                </UserObject>
                <mxCell id="18" value="" style="endArrow=none;html=1;entryX=0;entryY=0;entryDx=0;entryDy=0;exitX=1;exitY=1;exitDx=0;exitDy=0;shape=link;" parent="1" source="17" target="5" edge="1">
                    <mxGeometry width="50" height="50" relative="1" as="geometry">
                        <mxPoint x="240" y="200" as="sourcePoint"/>
                        <mxPoint x="410" y="480" as="targetPoint"/>
                    </mxGeometry>
                </mxCell>
                <mxCell id="20" value="" style="endArrow=none;html=1;entryX=0.5;entryY=1;entryDx=0;entryDy=0;endFill=0;shape=link;" parent="1" source="5" target="16" edge="1">
                    <mxGeometry width="50" height="50" relative="1" as="geometry">
                        <mxPoint x="470" y="320" as="sourcePoint"/>
                        <mxPoint x="360" y="220" as="targetPoint"/>
                    </mxGeometry>
                </mxCell>
                <mxCell id="22" value="config.py" style="whiteSpace=wrap;html=1;aspect=fixed;" parent="1" vertex="1">
                    <mxGeometry y="440" width="80" height="80" as="geometry"/>
                </mxCell>
                <mxCell id="25" value="" style="curved=1;endArrow=classic;html=1;endFill=1;exitX=0;exitY=1;exitDx=0;exitDy=0;entryX=0.5;entryY=0;entryDx=0;entryDy=0;" parent="1" source="17" target="22" edge="1">
                    <mxGeometry width="50" height="50" relative="1" as="geometry">
                        <mxPoint x="160" y="200" as="sourcePoint"/>
                        <mxPoint x="70" y="400" as="targetPoint"/>
                        <Array as="points">
                            <mxPoint x="40" y="280"/>
                        </Array>
                    </mxGeometry>
                </mxCell>
                <mxCell id="26" value="" style="endArrow=classic;html=1;endFill=1;entryX=1;entryY=0.5;entryDx=0;entryDy=0;exitX=0;exitY=0.5;exitDx=0;exitDy=0;" parent="1" source="2" target="22" edge="1">
                    <mxGeometry width="50" height="50" relative="1" as="geometry">
                        <mxPoint x="310" y="480" as="sourcePoint"/>
                        <mxPoint x="120" y="510" as="targetPoint"/>
                    </mxGeometry>
                </mxCell>
                <mxCell id="27" value="resources" style="ellipse;whiteSpace=wrap;html=1;aspect=fixed;" parent="1" vertex="1">
                    <mxGeometry x="640" y="440" width="80" height="80" as="geometry"/>
                </mxCell>
                <mxCell id="32" value="daily_frog_&lt;br&gt;facts.json" style="whiteSpace=wrap;html=1;aspect=fixed;" parent="1" vertex="1">
                    <mxGeometry x="760" y="320" width="80" height="80" as="geometry"/>
                </mxCell>
                <mxCell id="33" value="" style="endArrow=none;html=1;entryX=1;entryY=0;entryDx=0;entryDy=0;exitX=0;exitY=1;exitDx=0;exitDy=0;shape=link;" parent="1" source="32" target="27" edge="1">
                    <mxGeometry width="50" height="50" relative="1" as="geometry">
                        <mxPoint x="500" y="540" as="sourcePoint"/>
                        <mxPoint x="550" y="490" as="targetPoint"/>
                    </mxGeometry>
                </mxCell>
                <mxCell id="34" value="frog_facts&lt;br&gt;.json" style="whiteSpace=wrap;html=1;aspect=fixed;" parent="1" vertex="1">
                    <mxGeometry x="800" y="440" width="80" height="80" as="geometry"/>
                </mxCell>
                <mxCell id="35" value="frogs.json" style="whiteSpace=wrap;html=1;aspect=fixed;" parent="1" vertex="1">
                    <mxGeometry x="760" y="560" width="80" height="80" as="geometry"/>
                </mxCell>
                <mxCell id="36" value="settings.json" style="whiteSpace=wrap;html=1;aspect=fixed;" parent="1" vertex="1">
                    <mxGeometry x="640" y="600" width="80" height="80" as="geometry"/>
                </mxCell>
                <mxCell id="37" value="" style="endArrow=none;html=1;entryX=0;entryY=0.5;entryDx=0;entryDy=0;exitX=1;exitY=0.5;exitDx=0;exitDy=0;shape=link;" parent="1" source="27" target="34" edge="1">
                    <mxGeometry width="50" height="50" relative="1" as="geometry">
                        <mxPoint x="500" y="540" as="sourcePoint"/>
                        <mxPoint x="550" y="490" as="targetPoint"/>
                    </mxGeometry>
                </mxCell>
                <mxCell id="38" value="" style="endArrow=none;html=1;entryX=0.5;entryY=0;entryDx=0;entryDy=0;exitX=0.5;exitY=1;exitDx=0;exitDy=0;shape=link;" parent="1" source="27" target="36" edge="1">
                    <mxGeometry width="50" height="50" relative="1" as="geometry">
                        <mxPoint x="500" y="670" as="sourcePoint"/>
                        <mxPoint x="550" y="620" as="targetPoint"/>
                    </mxGeometry>
                </mxCell>
                <mxCell id="39" value="" style="endArrow=none;html=1;entryX=0;entryY=0;entryDx=0;entryDy=0;exitX=1;exitY=1;exitDx=0;exitDy=0;shape=link;" parent="1" source="27" target="35" edge="1">
                    <mxGeometry width="50" height="50" relative="1" as="geometry">
                        <mxPoint x="500" y="670" as="sourcePoint"/>
                        <mxPoint x="550" y="620" as="targetPoint"/>
                    </mxGeometry>
                </mxCell>
                <mxCell id="42" value="" style="endArrow=classic;html=1;entryX=0.5;entryY=0;entryDx=0;entryDy=0;exitX=0.5;exitY=0;exitDx=0;exitDy=0;curved=1;" parent="1" source="17" edge="1">
                    <mxGeometry width="50" height="50" relative="1" as="geometry">
                        <mxPoint x="320" y="100" as="sourcePoint"/>
                        <mxPoint x="520" y="120" as="targetPoint"/>
                        <Array as="points">
                            <mxPoint x="240" y="40"/>
                            <mxPoint x="480" y="40"/>
                        </Array>
                    </mxGeometry>
                </mxCell>
                <mxCell id="44" value="" style="curved=1;endArrow=classic;html=1;exitX=1;exitY=1;exitDx=0;exitDy=0;entryX=0;entryY=0.5;entryDx=0;entryDy=0;endFill=1;" parent="1" target="43" edge="1">
                    <mxGeometry width="50" height="50" relative="1" as="geometry">
                        <mxPoint x="560" y="200" as="sourcePoint"/>
                        <mxPoint x="960" y="280" as="targetPoint"/>
                        <Array as="points"/>
                    </mxGeometry>
                </mxCell>
                <mxCell id="43" value="frog.py&lt;br&gt;links" style="rhombus;whiteSpace=wrap;html=1;" parent="1" vertex="1">
                    <mxGeometry x="1000" y="200" width="80" height="80" as="geometry"/>
                </mxCell>
                <mxCell id="45" value="" style="endArrow=classic;html=1;rounded=1;entryX=1;entryY=0;entryDx=0;entryDy=0;endFill=1;exitX=0;exitY=1;exitDx=0;exitDy=0;" parent="1" source="43" target="32" edge="1">
                    <mxGeometry width="50" height="50" relative="1" as="geometry">
                        <mxPoint x="1060" y="260" as="sourcePoint"/>
                        <mxPoint x="630" y="350" as="targetPoint"/>
                    </mxGeometry>
                </mxCell>
                <mxCell id="46" value="" style="endArrow=classic;html=1;endFill=1;exitX=0;exitY=1;exitDx=0;exitDy=0;curved=1;entryX=1;entryY=0;entryDx=0;entryDy=0;" parent="1" source="43" target="34" edge="1">
                    <mxGeometry width="50" height="50" relative="1" as="geometry">
                        <mxPoint x="880" y="350" as="sourcePoint"/>
                        <mxPoint x="880" y="440" as="targetPoint"/>
                        <Array as="points"/>
                    </mxGeometry>
                </mxCell>
                <mxCell id="47" value="" style="endArrow=classic;html=1;exitX=0;exitY=1;exitDx=0;exitDy=0;endFill=1;entryX=1;entryY=0.5;entryDx=0;entryDy=0;curved=1;" parent="1" source="43" target="35" edge="1">
                    <mxGeometry width="50" height="50" relative="1" as="geometry">
                        <mxPoint x="1000" y="600" as="sourcePoint"/>
                        <mxPoint x="970" y="460" as="targetPoint"/>
                        <Array as="points">
                            <mxPoint x="1040" y="600"/>
                        </Array>
                    </mxGeometry>
                </mxCell>
                <mxCell id="48" value="" style="endArrow=none;html=1;entryX=0.5;entryY=1;entryDx=0;entryDy=0;curved=1;endFill=0;" parent="1" target="22" edge="1">
                    <mxGeometry width="50" height="50" relative="1" as="geometry">
                        <mxPoint x="400" y="840" as="sourcePoint"/>
                        <mxPoint x="630" y="640" as="targetPoint"/>
                        <Array as="points">
                            <mxPoint x="40" y="840"/>
                        </Array>
                    </mxGeometry>
                </mxCell>
                <mxCell id="49" value="" style="endArrow=classic;html=1;curved=1;entryX=0.5;entryY=1;entryDx=0;entryDy=0;endFill=1;" parent="1" target="36" edge="1">
                    <mxGeometry width="50" height="50" relative="1" as="geometry">
                        <mxPoint x="400" y="840" as="sourcePoint"/>
                        <mxPoint x="630" y="640" as="targetPoint"/>
                        <Array as="points">
                            <mxPoint x="680" y="840"/>
                        </Array>
                    </mxGeometry>
                </mxCell>
                <mxCell id="50" value=".env" style="whiteSpace=wrap;html=1;aspect=fixed;" parent="1" vertex="1">
                    <mxGeometry x="640" y="280" width="80" height="80" as="geometry"/>
                </mxCell>
                <mxCell id="51" value="" style="endArrow=none;html=1;curved=1;entryX=0.5;entryY=1;entryDx=0;entryDy=0;exitX=0.5;exitY=0;exitDx=0;exitDy=0;shape=link;" parent="1" source="27" target="50" edge="1">
                    <mxGeometry width="50" height="50" relative="1" as="geometry">
                        <mxPoint x="480" y="440" as="sourcePoint"/>
                        <mxPoint x="530" y="390" as="targetPoint"/>
                    </mxGeometry>
                </mxCell>
                <mxCell id="52" value="" style="endArrow=classic;html=1;curved=1;exitX=1;exitY=0.5;exitDx=0;exitDy=0;entryX=0;entryY=0.5;entryDx=0;entryDy=0;endFill=1;" parent="1" source="2" target="50" edge="1">
                    <mxGeometry width="50" height="50" relative="1" as="geometry">
                        <mxPoint x="480" y="440" as="sourcePoint"/>
                        <mxPoint x="530" y="390" as="targetPoint"/>
                    </mxGeometry>
                </mxCell>
                <mxCell id="80" style="edgeStyle=none;curved=1;html=1;exitX=1;exitY=1;exitDx=0;exitDy=0;entryX=0;entryY=0;entryDx=0;entryDy=0;endArrow=classic;endFill=1;" parent="1" source="53" target="79" edge="1">
                    <mxGeometry relative="1" as="geometry"/>
                </mxCell>
                <mxCell id="85" style="edgeStyle=none;curved=1;html=1;exitX=0;exitY=1;exitDx=0;exitDy=0;entryX=1;entryY=0;entryDx=0;entryDy=0;endArrow=classic;endFill=1;" parent="1" source="53" target="84" edge="1">
                    <mxGeometry relative="1" as="geometry"/>
                </mxCell>
                <mxCell id="87" style="edgeStyle=none;curved=1;html=1;exitX=1;exitY=0;exitDx=0;exitDy=0;entryX=0;entryY=1;entryDx=0;entryDy=0;endArrow=classic;endFill=1;" parent="1" source="53" target="82" edge="1">
                    <mxGeometry relative="1" as="geometry"/>
                </mxCell>
                <mxCell id="53" value="#GrenouilleBot" style="rounded=1;whiteSpace=wrap;html=1;" parent="1" vertex="1">
                    <mxGeometry x="360" y="1275" width="120" height="60" as="geometry"/>
                </mxCell>
                <mxCell id="89" style="edgeStyle=none;curved=1;html=1;exitX=1;exitY=0.5;exitDx=0;exitDy=0;entryX=0.5;entryY=1;entryDx=0;entryDy=0;endArrow=classic;endFill=1;" parent="1" source="54" target="55" edge="1">
                    <mxGeometry relative="1" as="geometry">
                        <Array as="points">
                            <mxPoint x="770" y="1590"/>
                        </Array>
                    </mxGeometry>
                </mxCell>
                <mxCell id="54" value="#FrogCommands" style="rounded=1;whiteSpace=wrap;html=1;" parent="1" vertex="1">
                    <mxGeometry x="540" y="1550" width="120" height="60" as="geometry"/>
                </mxCell>
                <mxCell id="55" value="#FrogMessages" style="rounded=1;whiteSpace=wrap;html=1;" parent="1" vertex="1">
                    <mxGeometry x="720" y="1400" width="120" height="60" as="geometry"/>
                </mxCell>
                <mxCell id="92" style="edgeStyle=none;curved=1;html=1;exitX=0.5;exitY=1;exitDx=0;exitDy=0;entryX=0.5;entryY=0;entryDx=0;entryDy=0;endArrow=classic;endFill=1;" parent="1" source="56" target="55" edge="1">
                    <mxGeometry relative="1" as="geometry"/>
                </mxCell>
                <mxCell id="94" style="edgeStyle=none;curved=1;html=1;exitX=0.5;exitY=0;exitDx=0;exitDy=0;entryX=0.5;entryY=1;entryDx=0;entryDy=0;endArrow=classic;endFill=1;" parent="1" source="56" target="93" edge="1">
                    <mxGeometry relative="1" as="geometry"/>
                </mxCell>
                <mxCell id="56" value="#DailyCommands" style="rounded=1;whiteSpace=wrap;html=1;" parent="1" vertex="1">
                    <mxGeometry x="720" y="1160" width="120" height="60" as="geometry"/>
                </mxCell>
                <mxCell id="58" value="#read_config" style="rounded=1;whiteSpace=wrap;html=1;" parent="1" vertex="1">
                    <mxGeometry x="360" y="930" width="120" height="60" as="geometry"/>
                </mxCell>
                <mxCell id="59" value="#default_config" style="rounded=1;whiteSpace=wrap;html=1;" parent="1" vertex="1">
                    <mxGeometry x="240" y="1010" width="120" height="60" as="geometry"/>
                </mxCell>
                <mxCell id="60" value="#update_guild_settings" style="rounded=1;whiteSpace=wrap;html=1;" parent="1" vertex="1">
                    <mxGeometry x="480" y="1010" width="120" height="60" as="geometry"/>
                </mxCell>
                <mxCell id="61" value="&lt;h1&gt;File dependencies&lt;/h1&gt;" style="text;html=1;strokeColor=none;fillColor=none;spacing=5;spacingTop=-20;whiteSpace=wrap;overflow=hidden;rounded=0;" parent="1" vertex="1">
                    <mxGeometry x="890" y="40" width="190" height="120" as="geometry"/>
                </mxCell>
                <mxCell id="64" value="frog.py" style="whiteSpace=wrap;html=1;aspect=fixed;" parent="1" vertex="1">
                    <mxGeometry x="480" y="120" width="80" height="80" as="geometry"/>
                </mxCell>
                <mxCell id="65" value="&lt;h1&gt;Classes and Functions&lt;/h1&gt;" style="text;html=1;strokeColor=none;fillColor=none;spacing=5;spacingTop=-20;whiteSpace=wrap;overflow=hidden;rounded=0;" parent="1" vertex="1">
                    <mxGeometry x="890" y="880" width="190" height="120" as="geometry"/>
                </mxCell>
                <mxCell id="67" value="beta.py" style="whiteSpace=wrap;html=1;aspect=fixed;" parent="1" vertex="1">
                    <mxGeometry x="40" y="1265" width="80" height="80" as="geometry"/>
                </mxCell>
                <mxCell id="68" value="main.py" style="whiteSpace=wrap;html=1;aspect=fixed;" parent="1" vertex="1">
                    <mxGeometry x="199" y="1265" width="80" height="80" as="geometry"/>
                </mxCell>
                <mxCell id="72" value="" style="endArrow=classic;html=1;exitX=1;exitY=0.5;exitDx=0;exitDy=0;entryX=0;entryY=0.5;entryDx=0;entryDy=0;curved=1;endFill=1;" parent="1" source="67" target="68" edge="1">
                    <mxGeometry width="50" height="50" relative="1" as="geometry">
                        <mxPoint x="500" y="1350" as="sourcePoint"/>
                        <mxPoint x="550" y="1300" as="targetPoint"/>
                    </mxGeometry>
                </mxCell>
                <mxCell id="73" value="" style="endArrow=classic;html=1;exitX=1;exitY=0.5;exitDx=0;exitDy=0;entryX=0;entryY=0.5;entryDx=0;entryDy=0;curved=1;endFill=1;" parent="1" source="68" target="53" edge="1">
                    <mxGeometry width="50" height="50" relative="1" as="geometry">
                        <mxPoint x="130" y="1315" as="sourcePoint"/>
                        <mxPoint x="209" y="1315" as="targetPoint"/>
                    </mxGeometry>
                </mxCell>
                <mxCell id="76" style="edgeStyle=none;curved=1;html=1;exitX=1;exitY=0;exitDx=0;exitDy=0;entryX=0.5;entryY=1;entryDx=0;entryDy=0;endArrow=classic;endFill=1;" parent="1" source="74" target="60" edge="1">
                    <mxGeometry relative="1" as="geometry"/>
                </mxCell>
                <mxCell id="77" style="edgeStyle=none;curved=1;html=1;exitX=0;exitY=0;exitDx=0;exitDy=0;entryX=0.5;entryY=1;entryDx=0;entryDy=0;endArrow=classic;endFill=1;" parent="1" source="74" target="59" edge="1">
                    <mxGeometry relative="1" as="geometry"/>
                </mxCell>
                <mxCell id="78" style="edgeStyle=none;curved=1;html=1;exitX=0.5;exitY=0;exitDx=0;exitDy=0;entryX=0.5;entryY=1;entryDx=0;entryDy=0;endArrow=classic;endFill=1;" parent="1" source="74" target="58" edge="1">
                    <mxGeometry relative="1" as="geometry"/>
                </mxCell>
                <mxCell id="74" value="config.py" style="whiteSpace=wrap;html=1;aspect=fixed;" parent="1" vertex="1">
                    <mxGeometry x="380" y="1110" width="80" height="80" as="geometry"/>
                </mxCell>
                <mxCell id="75" value="" style="endArrow=classic;html=1;curved=1;entryX=0.5;entryY=1;entryDx=0;entryDy=0;exitX=0.5;exitY=0;exitDx=0;exitDy=0;endFill=1;" parent="1" source="53" target="74" edge="1">
                    <mxGeometry width="50" height="50" relative="1" as="geometry">
                        <mxPoint x="500" y="1250" as="sourcePoint"/>
                        <mxPoint x="550" y="1200" as="targetPoint"/>
                    </mxGeometry>
                </mxCell>
                <mxCell id="88" style="edgeStyle=none;curved=1;html=1;exitX=0.5;exitY=1;exitDx=0;exitDy=0;entryX=0.5;entryY=0;entryDx=0;entryDy=0;endArrow=classic;endFill=1;" parent="1" source="79" target="54" edge="1">
                    <mxGeometry relative="1" as="geometry"/>
                </mxCell>
                <mxCell id="79" value="frog.py" style="whiteSpace=wrap;html=1;aspect=fixed;" parent="1" vertex="1">
                    <mxGeometry x="560" y="1390" width="80" height="80" as="geometry"/>
                </mxCell>
                <mxCell id="91" style="edgeStyle=none;curved=1;html=1;exitX=1;exitY=0.5;exitDx=0;exitDy=0;entryX=0;entryY=0.5;entryDx=0;entryDy=0;endArrow=classic;endFill=1;" parent="1" source="82" target="56" edge="1">
                    <mxGeometry relative="1" as="geometry"/>
                </mxCell>
                <UserObject label="subscribe.py" id="82">
                    <mxCell style="whiteSpace=wrap;html=1;aspect=fixed;" parent="1" vertex="1">
                        <mxGeometry x="560" y="1150" width="80" height="80" as="geometry"/>
                    </mxCell>
                </UserObject>
                <mxCell id="83" value="#CommandErrors" style="rounded=1;whiteSpace=wrap;html=1;" parent="1" vertex="1">
                    <mxGeometry x="179" y="1550" width="120" height="60" as="geometry"/>
                </mxCell>
                <mxCell id="86" style="edgeStyle=none;curved=1;html=1;exitX=0.5;exitY=1;exitDx=0;exitDy=0;endArrow=classic;endFill=1;" parent="1" source="84" target="83" edge="1">
                    <mxGeometry relative="1" as="geometry"/>
                </mxCell>
                <mxCell id="84" value="error.py" style="whiteSpace=wrap;html=1;aspect=fixed;" parent="1" vertex="1">
                    <mxGeometry x="199" y="1390" width="80" height="80" as="geometry"/>
                </mxCell>
                <mxCell id="95" style="edgeStyle=none;curved=1;html=1;exitX=0;exitY=0.5;exitDx=0;exitDy=0;entryX=1;entryY=0;entryDx=0;entryDy=0;endArrow=classic;endFill=1;" parent="1" source="93" target="60" edge="1">
                    <mxGeometry relative="1" as="geometry"/>
                </mxCell>
                <mxCell id="96" style="edgeStyle=none;curved=1;html=1;exitX=0;exitY=0.5;exitDx=0;exitDy=0;entryX=1;entryY=0.5;entryDx=0;entryDy=0;endArrow=classic;endFill=1;" parent="1" source="93" target="58" edge="1">
                    <mxGeometry relative="1" as="geometry"/>
                </mxCell>
                <mxCell id="97" style="edgeStyle=none;curved=1;html=1;exitX=0;exitY=0.5;exitDx=0;exitDy=0;endArrow=classic;endFill=1;entryX=0.5;entryY=0;entryDx=0;entryDy=0;" parent="1" source="93" target="59" edge="1">
                    <mxGeometry relative="1" as="geometry">
                        <mxPoint x="250" y="940" as="targetPoint"/>
                        <Array as="points">
                            <mxPoint x="530" y="880"/>
                            <mxPoint x="310" y="900"/>
                        </Array>
                    </mxGeometry>
                </mxCell>
                <mxCell id="93" value="Daily Commands&lt;br&gt;Links" style="rhombus;whiteSpace=wrap;html=1;" parent="1" vertex="1">
                    <mxGeometry x="680" y="910" width="80" height="80" as="geometry"/>
                </mxCell>
                <mxCell id="108" style="edgeStyle=none;html=1;entryX=0;entryY=0.5;entryDx=0;entryDy=0;curved=1;exitX=1;exitY=0.5;exitDx=0;exitDy=0;" parent="1" source="98" target="100" edge="1">
                    <mxGeometry relative="1" as="geometry">
                        <mxPoint x="1200" y="1270" as="sourcePoint"/>
                        <Array as="points">
                            <mxPoint x="1240" y="1160"/>
                        </Array>
                    </mxGeometry>
                </mxCell>
                <mxCell id="109" style="edgeStyle=none;curved=1;html=1;exitX=1;exitY=0.5;exitDx=0;exitDy=0;entryX=0;entryY=0.5;entryDx=0;entryDy=0;" parent="1" source="98" target="99" edge="1">
                    <mxGeometry relative="1" as="geometry">
                        <Array as="points">
                            <mxPoint x="1240" y="1080"/>
                        </Array>
                    </mxGeometry>
                </mxCell>
                <mxCell id="110" style="edgeStyle=none;curved=1;html=1;exitX=1;exitY=0.5;exitDx=0;exitDy=0;entryX=0;entryY=0.5;entryDx=0;entryDy=0;" parent="1" source="98" target="101" edge="1">
                    <mxGeometry relative="1" as="geometry">
                        <Array as="points">
                            <mxPoint x="1240" y="1240"/>
                        </Array>
                    </mxGeometry>
                </mxCell>
                <mxCell id="111" style="edgeStyle=none;curved=1;html=1;exitX=1;exitY=0.5;exitDx=0;exitDy=0;entryX=0;entryY=0.5;entryDx=0;entryDy=0;" parent="1" source="98" target="102" edge="1">
                    <mxGeometry relative="1" as="geometry">
                        <Array as="points">
                            <mxPoint x="1240" y="1320"/>
                        </Array>
                    </mxGeometry>
                </mxCell>
                <mxCell id="112" style="edgeStyle=none;curved=1;html=1;exitX=1;exitY=0.5;exitDx=0;exitDy=0;entryX=0;entryY=0.5;entryDx=0;entryDy=0;" parent="1" source="98" target="103" edge="1">
                    <mxGeometry relative="1" as="geometry">
                        <Array as="points">
                            <mxPoint x="1240" y="1400"/>
                        </Array>
                    </mxGeometry>
                </mxCell>
                <mxCell id="113" style="edgeStyle=none;curved=1;html=1;exitX=1;exitY=0.5;exitDx=0;exitDy=0;entryX=0;entryY=0.5;entryDx=0;entryDy=0;" parent="1" source="98" target="104" edge="1">
                    <mxGeometry relative="1" as="geometry">
                        <Array as="points">
                            <mxPoint x="1240" y="1480"/>
                        </Array>
                    </mxGeometry>
                </mxCell>
                <mxCell id="98" value="Specie" style="whiteSpace=wrap;html=1;aspect=fixed;" parent="1" vertex="1">
                    <mxGeometry x="1120" y="1240" width="80" height="80" as="geometry"/>
                </mxCell>
                <mxCell id="99" value="Image" style="whiteSpace=wrap;html=1;aspect=fixed;" parent="1" vertex="1">
                    <mxGeometry x="1400" y="940" width="80" height="80" as="geometry"/>
                </mxCell>
                <mxCell id="100" value="Taxonomy" style="whiteSpace=wrap;html=1;aspect=fixed;" parent="1" vertex="1">
                    <mxGeometry x="1400" y="1060" width="80" height="80" as="geometry"/>
                </mxCell>
                <mxCell id="101" value="Locations" style="whiteSpace=wrap;html=1;aspect=fixed;" parent="1" vertex="1">
                    <mxGeometry x="1400" y="1180" width="80" height="80" as="geometry"/>
                </mxCell>
                <mxCell id="102" value="Characteristics" style="whiteSpace=wrap;html=1;aspect=fixed;" parent="1" vertex="1">
                    <mxGeometry x="1400" y="1300" width="80" height="80" as="geometry"/>
                </mxCell>
                <mxCell id="103" value="Fun fact" style="whiteSpace=wrap;html=1;aspect=fixed;" parent="1" vertex="1">
                    <mxGeometry x="1400" y="1420" width="80" height="80" as="geometry"/>
                </mxCell>
                <mxCell id="104" value="Conservation&lt;br&gt;status" style="whiteSpace=wrap;html=1;aspect=fixed;" parent="1" vertex="1">
                    <mxGeometry x="1400" y="1540" width="80" height="80" as="geometry"/>
                </mxCell>
                <mxCell id="121" style="edgeStyle=none;curved=1;html=1;exitX=1;exitY=0.5;exitDx=0;exitDy=0;entryX=0;entryY=0.5;entryDx=0;entryDy=0;" parent="1" source="114" target="115" edge="1">
                    <mxGeometry relative="1" as="geometry">
                        <Array as="points">
                            <mxPoint x="1640" y="1160"/>
                        </Array>
                    </mxGeometry>
                </mxCell>
                <mxCell id="122" style="edgeStyle=none;curved=1;html=1;exitX=1;exitY=0.5;exitDx=0;exitDy=0;entryX=0;entryY=0.5;entryDx=0;entryDy=0;" parent="1" source="114" target="116" edge="1">
                    <mxGeometry relative="1" as="geometry">
                        <Array as="points">
                            <mxPoint x="1640" y="1400"/>
                        </Array>
                    </mxGeometry>
                </mxCell>
                <mxCell id="114" value="guild.id" style="whiteSpace=wrap;html=1;aspect=fixed;" parent="1" vertex="1">
                    <mxGeometry x="1560" y="1240" width="80" height="80" as="geometry"/>
                </mxCell>
                <mxCell id="123" style="edgeStyle=none;curved=1;html=1;exitX=1;exitY=0.5;exitDx=0;exitDy=0;entryX=0;entryY=0.5;entryDx=0;entryDy=0;" parent="1" source="115" target="120" edge="1">
                    <mxGeometry relative="1" as="geometry">
                        <Array as="points"/>
                    </mxGeometry>
                </mxCell>
                <mxCell id="124" style="edgeStyle=none;curved=1;html=1;exitX=1;exitY=0.5;exitDx=0;exitDy=0;entryX=0;entryY=0.5;entryDx=0;entryDy=0;" parent="1" source="115" target="119" edge="1">
                    <mxGeometry relative="1" as="geometry">
                        <Array as="points">
                            <mxPoint x="1880" y="1170"/>
                        </Array>
                    </mxGeometry>
                </mxCell>
                <mxCell id="115" value="subscribe.daily" style="whiteSpace=wrap;html=1;aspect=fixed;" parent="1" vertex="1">
                    <mxGeometry x="1760" y="1080" width="80" height="80" as="geometry"/>
                </mxCell>
                <mxCell id="125" style="edgeStyle=none;html=1;exitX=1;exitY=0.5;exitDx=0;exitDy=0;entryX=0;entryY=0.5;entryDx=0;entryDy=0;curved=1;" parent="1" source="116" target="118" edge="1">
                    <mxGeometry relative="1" as="geometry">
                        <Array as="points"/>
                    </mxGeometry>
                </mxCell>
                <mxCell id="126" style="edgeStyle=none;curved=1;html=1;exitX=1;exitY=0.5;exitDx=0;exitDy=0;entryX=0;entryY=0.5;entryDx=0;entryDy=0;" parent="1" source="116" target="117" edge="1">
                    <mxGeometry relative="1" as="geometry">
                        <Array as="points"/>
                    </mxGeometry>
                </mxCell>
                <mxCell id="116" value="channel.access" style="whiteSpace=wrap;html=1;aspect=fixed;" parent="1" vertex="1">
                    <mxGeometry x="1760" y="1400" width="80" height="80" as="geometry"/>
                </mxCell>
                <mxCell id="117" value="channel.id" style="whiteSpace=wrap;html=1;aspect=fixed;" parent="1" vertex="1">
                    <mxGeometry x="1920" y="1480" width="80" height="80" as="geometry"/>
                </mxCell>
                <mxCell id="118" value="limited" style="whiteSpace=wrap;html=1;aspect=fixed;" parent="1" vertex="1">
                    <mxGeometry x="1920" y="1320" width="80" height="80" as="geometry"/>
                </mxCell>
                <mxCell id="119" value="channel.id" style="whiteSpace=wrap;html=1;aspect=fixed;" parent="1" vertex="1">
                    <mxGeometry x="1920" y="1160" width="80" height="80" as="geometry"/>
                </mxCell>
                <mxCell id="120" value="enabled" style="whiteSpace=wrap;html=1;aspect=fixed;" parent="1" vertex="1">
                    <mxGeometry x="1920" y="1000" width="80" height="80" as="geometry"/>
                </mxCell>
            </root>
        </mxGraphModel>
    </diagram>
</mxfile>